<svg xmlns="http://www.w3.org/2000/svg" width="225" height="225" viewBox="0 0 225 225">
<g>
<path d="M 139.79,194.31 L 140.61,195.83 L 140.90,196.44 L 141.40,197.54 L 141.50,197.86 L 141.79,198.79 L 141.92,199.07 L 142.19,199.52 L 142.34,199.58 L 142.67,199.59 L 142.89,199.44 L 143.38,199.05 L 143.72,198.71 L 144.39,197.61 L 144.43,196.93 L 144.70,197.91 L 144.83,198.50 L 144.97,199.53 L 145.01,200.02 L 144.95,200.85 L 144.90,201.23 L 144.65,201.83 L 144.07,202.46 L 143.81,202.62 L 143.29,202.64 L 143.04,202.60 L 142.71,202.27 L 142.65,202.16 L 142.48,201.73 L 142.40,201.49 L 142.20,200.84 L 141.57,198.50 L 141.48,198.09 L 140.97,196.83 L 140.67,196.14 L 139.85,194.49 L 138.02,191.35 M 91.91,162.95 L 91.86,163.35 L 91.60,164.29 L 91.45,164.79 L 90.98,165.93 L 90.71,166.52 L 90.03,167.88 L 89.65,168.58 L 88.74,170.16 L 87.12,172.81 L 85.78,174.92 L 83.18,179.86 L 82.58,181.05 L 81.59,183.26 L 80.55,186.00 L 79.90,188.15 L 78.68,191.66 L 78.38,192.47 L 77.82,193.89 L 77.54,194.57 L 77.01,195.72 L 76.75,196.27 L 76.26,197.15 L 76.02,197.56 L 75.57,198.18 L 75.34,198.45 L 74.93,198.79 L 74.35,199.00 L 73.98,199.00 L 73.40,198.62 L 73.15,198.38 L 73.00,197.70 L 73.00,197.34 L 73.33,196.45 L 74.14,195.26 L 74.30,195.10 L 74.65,194.44 L 74.82,194.06 L 75.18,193.04 L 76.09,189.31 L 76.21,188.60 L 76.26,189.39 L 76.37,189.65 L 76.64,190.07 L 76.84,190.13 L 77.28,190.15 L 77.54,190.02 L 78.09,189.67 L 78.38,189.37 L 78.99,188.67 L 79.29,188.20 L 79.90,187.18 L 80.18,186.56 L 80.73,185.25 L 80.97,184.50 L 81.85,182.34 L 82.74,180.47 L 83.30,179.41 L 85.78,174.92 L 87.12,172.81 L 88.74,170.16 L 89.65,168.58 L 90.02,167.88 L 90.71,166.52 L 90.98,165.93 L 91.45,164.79 L 91.60,164.29 L 91.86,163.35 L 91.91,162.95 L 91.93,162.76 M 107.65,184.07 L 107.95,184.44 L 108.70,185.65 L 108.96,186.41 L 108.92,186.64 L 108.88,188.75 L 109.04,189.41 L 109.22,189.63 L 109.63,190.00 L 109.87,190.00 L 110.36,189.70 L 110.65,189.22 L 110.75,188.94 L 110.74,188.98 L 110.67,189.43 L 110.54,190.12 L 110.34,190.84 L 110.12,191.36 L 109.79,192.04 L 109.63,192.32 L 109.33,192.54 L 109.17,192.59 L 108.80,192.36 L 108.60,192.20 L 108.06,191.57 L 107.82,191.29 L 107.48,190.49 L 107.34,190.05 L 107.17,188.90 L 107.11,188.27 L 107.11,186.70 L 107.28,183.81 L 107.36,182.97 M 112.23,164.45 L 111.75,176.48 L 111.69,178.13 L 111.50,181.33 L 111.39,182.89 L 111.39,182.91 L 111.18,180.97 L 110.91,180.26 L 110.43,177.57 L 110.61,175.68 L 110.96,174.68 L 111.69,171.51 L 112.00,169.07 L 112.00,168.07 L 111.91,166.18 L 111.74,165.32 L 111.57,165.05 L 111.16,164.59 L 110.84,164.47 L 110.11,164.28 M 107.09,173.05 L 107.60,177.96 L 107.64,179.36 L 107.62,179.90 L 107.54,180.87 L 107.45,181.14 L 107.38,182.28 L 107.43,181.00 L 107.45,180.00 L 107.42,177.89 L 107.39,176.85 L 107.26,174.86 L 106.97,172.35 M 78.99,176.63 L 78.77,177.22 L 78.35,178.44 L 78.51,177.84 L 79.12,176.28 L 79.26,176.07 M 134.08,167.67 L 134.28,168.45 L 134.71,170.31 L 135.41,173.63 L 135.61,174.64 L 136.29,177.05 L 136.39,177.40 L 136.10,176.56 L 135.75,175.33 L 135.12,172.97 L 134.95,172.03 L 133.91,167.07 M 127.15,166.27 L 127.44,167.29 L 128.09,169.47 L 128.51,170.71 L 129.41,173.27 L 129.58,173.72 L 129.42,173.29 L 128.51,170.73 L 128.09,169.49 L 127.44,167.30 L 127.15,166.28 L 126.82,164.68 L 126.78,163.15 L 126.82,164.67 M 106.70,165.80 L 106.55,166.52 L 106.52,166.97 L 106.50,167.95 L 106.53,168.54 L 106.63,169.81 L 106.72,170.56 L 106.93,172.04 L 106.83,171.47 L 106.64,170.03 L 106.56,169.35 L 106.48,168.20 L 106.46,167.66 L 106.50,166.76 L 106.54,166.35 L 106.72,165.68 L 106.82,165.39 M 73.39,144.33 L 74.44,145.80 L 74.52,146.07 L 74.25,146.97 L 74.05,147.47 L 73.27,148.74 L 72.83,149.41 L 71.64,150.94 L 71.00,151.73 L 69.50,153.42 L 67.94,155.12 L 64.30,158.55 L 63.37,159.38 L 61.52,160.90 L 58.82,162.87 L 58.15,163.32 L 57.04,164.06 L 56.52,164.40 L 55.69,164.93 L 55.30,165.17 L 54.69,165.50 L 54.42,165.64 L 53.99,165.79 L 53.61,165.89 L 53.17,165.60 L 52.98,165.38 L 52.65,164.52 L 52.55,164.28 L 52.81,163.55 L 53.01,163.14 L 53.84,162.09 L 54.33,161.52 L 55.74,160.16 L 57.67,158.47 L 56.64,159.45 L 56.31,159.76 L 54.78,161.64 L 54.51,162.21 L 54.46,162.45 L 54.42,162.87 L 54.51,163.01 L 55.06,163.71 L 55.42,163.84 L 56.19,163.95 L 56.69,163.76 L 57.78,163.23 L 58.49,162.71 L 60.02,161.50 L 60.99,160.63 L 63.84,157.99 L 65.55,156.33 L 66.31,155.56 L 67.76,154.05 L 68.39,153.36 L 69.57,152.02 L 70.06,151.42 L 70.95,150.27 L 71.29,149.76 L 71.88,148.81 L 72.07,148.42 L 72.35,147.69 L 72.36,147.41 L 72.32,146.92 L 72.17,146.77 L 71.31,146.51 L 70.50,146.77 L 69.93,147.14 L 68.68,148.05 L 67.85,148.78 L 66.03,150.43 L 65.02,151.41 L 65.17,151.10 L 65.31,150.82 L 65.75,150.10 L 67.62,147.43 L 68.33,146.50 L 69.76,145.20 L 70.46,144.65 L 71.76,144.15 L 72.38,144.00 M 106.91,165.12 L 106.92,165.08 L 107.28,164.82 M 107.75,164.46 L 107.76,164.46 L 108.11,164.42 M 131.47,162.44 L 131.73,162.60 L 132.20,163.09 L 132.43,163.37 L 132.44,163.38 L 131.57,162.59 L 130.32,162.11 L 129.66,162.05 L 129.37,162.04 L 129.60,162.00 L 130.34,162.00 M 190.71,144.84 L 192.12,145.35 L 195.05,146.70 L 196.47,147.39 L 198.78,148.79 L 199.28,149.12 L 200.02,149.73 L 200.64,150.49 L 200.88,151.12 L 200.98,151.92 L 200.97,152.25 L 200.51,152.47 L 200.20,152.51 L 199.10,152.14 L 198.47,151.89 L 196.65,150.95 L 196.14,150.68 L 194.64,150.06 L 193.83,149.74 L 191.90,149.10 L 186.41,147.63 L 188.02,147.88 L 188.79,147.88 L 190.11,147.76 L 190.47,147.53 L 191.00,146.94 L 191.00,146.47 L 190.78,145.44 L 190.38,144.91 L 190.04,144.69 L 189.42,144.40 M 37.69,136.61 L 37.34,137.05 L 36.74,137.92 L 36.62,138.33 L 36.50,139.14 L 36.64,139.50 L 36.88,140.05 L 37.04,140.20 L 37.38,140.43 L 37.63,140.42 L 38.21,140.32 L 38.64,140.14 L 39.58,139.71 L 40.24,139.38 L 42.13,138.62 L 43.94,138.04 L 45.03,137.73 L 49.80,136.49 L 51.09,136.24 L 48.36,136.93 L 46.97,137.30 L 44.18,138.17 L 42.81,138.62 L 40.29,139.55 L 37.19,140.91 L 36.34,141.34 L 34.78,142.06 L 34.04,142.39 L 32.81,142.89 L 32.25,143.10 L 31.48,143.31 L 30.98,143.26 L 30.98,143.05 L 30.76,143.05 L 30.23,143.60 L 30.01,143.93 L 29.02,144.51 L 28.46,144.79 L 27.07,145.20 L 26.36,145.37 L 24.95,145.51 L 24.29,145.54 L 23.25,145.31 L 22.69,145.10 L 22.14,144.59 L 21.96,144.33 L 22.02,144.11 L 22.11,144.53 L 22.29,144.71 L 22.72,145.00 L 23.00,145.00 L 23.71,144.71 L 24.00,144.28 L 24.00,144.00 L 23.71,143.29 L 23.51,143.16 L 24.75,142.98 L 25.15,142.98 L 26.47,142.58 L 27.20,142.32 L 29.05,141.46 L 30.02,140.98 L 32.23,139.74 L 35.79,137.54 L 37.22,136.61 L 38.63,135.77 M 183.47,142.59 L 184.24,142.93 L 185.56,143.43 L 186.83,143.78 L 186.50,143.73 L 185.25,143.35 L 184.05,142.87 L 183.32,142.53 L 182.01,141.90 M 164.05,138.28 L 165.02,138.72 L 165.66,139.05 L 167.03,139.75 L 167.80,140.18 L 169.40,141.07 L 170.24,141.56 L 170.30,141.59 L 169.03,140.93 L 168.28,140.55 L 166.93,139.87 L 165.30,139.05 L 164.35,138.59 L 163.75,138.18 M 164.94,132.93 L 165.97,133.32 L 166.52,133.55 L 167.93,134.23 L 168.70,134.62 L 170.59,135.63 L 171.60,136.18 L 174.07,137.56 L 177.74,139.64 L 173.86,137.47 L 171.32,136.07 L 170.29,135.51 L 168.38,134.49 L 167.62,134.11 L 166.23,133.44 L 165.70,133.22 L 164.93,132.92 M 60.52,133.76 L 58.89,134.33 L 58.00,134.61 L 55.86,135.19 L 52.32,135.99 L 52.27,136.00 L 55.83,135.19 L 57.98,134.61 L 58.87,134.33 L 60.52,133.76 L 61.08,133.51 L 62.00,133.03 L 61.08,133.51 M 161.47,135.68 L 161.52,135.91 L 161.41,135.70 L 161.42,134.73 L 162.26,133.31 L 161.58,134.63 M 162.62,132.95 L 162.62,132.95 L 162.64,132.94 M 62.91,130.83 L 62.77,131.40 L 62.91,130.83 M 61.12,128.15 L 61.41,128.33 L 61.39,128.32 L 60.73,128.14 L 60.34,128.13 L 59.54,128.17 L 59.09,128.28 L 58.17,128.56 L 57.68,128.80 L 56.52,129.26 L 55.53,129.58 L 54.97,129.74 L 52.60,130.33 L 52.50,130.34 L 54.46,129.83 L 55.18,129.64 L 56.38,129.26 L 57.68,128.76 L 58.18,128.53 L 59.10,128.26 L 59.54,128.16 L 60.35,128.13 M 62.84,129.82 L 62.87,130.13 L 62.84,129.82 M 62.43,129.01 L 62.46,129.07 L 62.42,129.01 M 190.56,112.85 L 191.22,112.99 L 192.23,113.31 L 192.69,113.47 L 193.29,113.81 L 193.53,113.99 L 193.69,114.36 L 193.41,114.93 L 193.36,114.99 L 192.98,115.10 L 192.75,115.15 L 192.07,115.26 L 191.31,115.38 L 189.07,115.60 L 187.85,115.70 L 184.94,115.90 L 183.44,116.00 L 180.23,116.16 L 178.62,116.24 L 175.46,116.34 L 173.92,116.39 L 172.20,116.42 L 173.51,116.37 L 174.52,116.33 L 178.68,116.11 L 180.63,115.95 L 182.54,115.79 L 183.39,115.70 L 185.01,115.52 L 185.65,115.42 L 188.04,114.65 L 189.14,113.89 L 189.37,113.50 L 189.62,112.73 L 189.55,112.65 M 165.04,114.01 L 165.13,115.00 L 165.33,115.41 L 165.81,116.10 L 165.74,116.08 L 165.27,115.37 L 165.09,114.98 L 165.03,114.00 L 165.04,113.92 M 46.92,107.44 L 48.83,107.45 L 52.37,107.52 L 54.07,107.56 L 56.94,107.68 L 57.60,107.71 L 58.74,107.78 L 59.28,107.82 L 60.14,107.90 L 60.53,107.94 L 61.08,108.03 L 61.50,108.16 L 61.68,108.35 L 61.68,109.17 L 61.18,110.67 L 60.97,111.06 L 60.33,111.62 L 59.95,111.87 L 58.69,112.19 L 58.32,112.26 L 57.40,112.37 L 56.91,112.42 L 55.71,112.49 L 55.07,112.52 L 53.55,112.57 L 50.85,112.61 L 48.28,112.64 L 47.78,112.62 L 49.74,112.61 L 52.07,112.58 L 53.14,112.53 L 55.19,112.42 L 56.05,112.34 L 57.62,112.14 L 58.15,112.02 L 59.04,111.75 L 59.16,111.59 L 59.21,110.53 L 58.79,109.65 L 58.41,109.26 L 57.10,108.60 L 55.63,108.24 L 54.56,108.10 L 52.18,107.85 L 50.59,107.75 L 48.94,107.66 L 48.01,107.62 L 46.08,107.55 L 45.00,107.52 L 41.88,107.44 L 42.83,107.44 M 174.06,111.51 L 178.31,111.63 L 179.67,111.68 L 180.86,111.75 L 180.21,111.73 L 177.79,111.63 L 176.56,111.58 L 173.93,111.50 M 166.98,111.60 L 167.02,111.59 L 167.05,111.59 M 33.46,109.98 L 33.27,109.77 L 33.26,109.74 M 33.00,109.00 L 33.00,108.90 L 33.23,109.67 M 172.03,89.00 L 171.61,89.00 L 172.50,88.89 M 62.63,91.70 L 62.96,91.77 L 63.90,91.86 L 63.48,92.00 L 63.30,92.00 L 62.56,91.72 L 62.14,91.53 L 61.91,91.41 M 64.82,91.55 L 64.78,91.57 L 64.95,91.45 M 191.11,81.15 L 190.50,81.56 L 190.30,81.72 L 190.00,82.02 L 190.00,82.11 L 190.21,82.56 L 190.59,82.70 L 191.49,82.93 L 192.13,82.95 L 193.51,82.94 L 194.29,82.85 L 195.92,82.59 L 196.64,82.40 L 194.91,83.23 L 188.86,86.56 L 187.85,87.17 L 185.41,88.47 L 184.15,89.13 L 183.35,89.51 L 183.46,89.39 L 184.33,88.26 L 184.56,87.60 L 184.52,87.33 L 184.34,86.82 L 184.13,86.63 L 183.61,86.29 L 183.25,86.19 L 182.45,86.04 L 181.97,86.04 L 180.95,86.08 L 180.38,86.19 L 177.95,86.82 L 176.64,87.51 L 175.54,87.93 L 175.58,87.87 L 176.58,87.29 L 178.57,86.57 L 178.93,86.48 L 180.22,86.01 L 180.94,85.73 L 182.80,84.95 L 183.77,84.53 L 185.95,83.55 L 189.33,81.96 L 190.45,81.42 L 191.31,81.03 M 60.12,83.45 L 61.32,84.06 L 63.37,85.20 L 64.31,85.75 L 65.68,86.68 L 66.72,87.73 L 66.87,88.12 L 66.79,88.63 L 66.74,88.21 L 66.58,87.92 L 66.18,87.34 L 65.85,87.02 L 65.10,86.37 L 64.57,86.01 L 63.42,85.27 L 62.68,84.85 L 61.10,83.97 L 60.13,83.47 L 59.37,83.08 M 200.80,78.12 L 201.09,78.19 L 201.51,78.44 L 201.87,78.70 L 201.94,79.46 L 201.87,79.84 L 201.11,80.62 L 199.11,81.48 L 198.72,81.56 L 197.41,82.07 L 196.86,82.30 L 198.37,81.41 L 199.00,80.44 L 199.00,79.88 L 198.86,78.55 L 198.73,78.21 L 199.75,78.00 L 200.16,78.00 M 50.71,79.10 L 54.46,80.77 L 50.07,78.86 M 32.80,73.39 L 33.17,73.58 L 34.32,74.02 L 34.95,74.25 L 36.47,74.72 L 41.50,76.00 L 42.32,76.16 L 44.43,76.80 L 45.55,77.16 L 46.25,77.42 L 45.81,77.27 L 43.57,76.55 L 42.55,76.27 L 40.58,75.77 L 39.72,75.60 L 38.11,75.33 L 37.47,75.29 L 36.30,75.27 L 35.92,75.37 L 35.29,75.64 L 35.20,75.89 L 34.60,76.82 L 34.11,77.03 L 33.87,76.95 L 33.42,76.66 L 33.26,76.35 L 33.00,75.62 L 33.00,75.11 L 32.54,73.59 L 32.10,73.07 M 28.00,72.66 L 28.00,72.60 L 28.15,72.42 M 28.42,72.14 L 28.51,72.08 L 28.74,72.07 M 93.76,47.23 L 94.61,49.40 L 96.22,54.05 L 96.60,55.17 L 97.25,57.28 L 97.56,58.29 L 98.03,60.04 L 98.24,60.84 L 98.47,62.04 L 98.48,63.03 L 98.32,63.30 L 97.37,63.72 L 95.55,64.00 L 95.11,64.00 L 94.37,63.81 L 94.01,63.68 L 93.40,63.19 L 93.11,62.90 L 92.56,62.03 L 92.29,61.55 L 91.80,60.39 L 92.18,61.04 L 92.44,61.29 L 92.99,61.72 L 93.32,61.84 L 94.04,62.00 L 94.47,62.00 L 96.46,61.54 L 96.88,61.17 L 97.02,60.91 L 97.24,60.34 L 97.28,59.96 L 97.32,59.16 L 97.27,58.66 L 97.12,57.60 L 96.98,56.96 L 96.65,55.62 L 96.41,54.83 L 95.90,53.18 L 95.58,52.23 L 93.64,46.93 M 117.48,61.42 L 117.26,61.45 L 117.25,61.45 L 117.48,61.42 L 117.82,61.33 M 116.72,61.33 L 116.43,61.24 L 115.75,60.89 L 116.72,61.33 M 90.54,56.56 L 90.50,56.43 L 90.44,56.16 M 117.51,51.23 L 117.94,54.08 L 118.10,54.90 L 118.22,55.67 L 118.13,55.14 L 117.97,54.37 L 117.53,51.53 L 117.33,49.42 L 117.31,49.13 M 89.49,52.00 L 89.99,54.27 L 89.58,52.50 L 89.47,51.86 M 112.26,49.85 L 112.44,50.63 L 112.56,50.91 L 112.83,51.40 L 112.82,51.39 L 112.54,50.88 L 112.41,50.58 L 112.23,49.75 L 112.10,49.01 M 89.26,50.75 L 89.32,51.08 L 88.57,48.29 M 112.10,48.99 L 112.07,48.85 L 112.07,47.83 M 88.38,47.64 L 88.39,47.64 L 88.38,47.64 M 91.39,41.76 L 91.73,42.44 L 92.52,44.19 L 92.92,45.12 L 93.54,46.67 L 92.33,43.77 L 91.67,42.43 L 90.83,40.82 M 87.90,46.04 L 87.91,46.05 L 87.88,45.98 M 117.20,44.42 L 117.19,43.87 L 117.23,43.47 M 116.54,32.63 L 116.90,33.05 L 117.33,34.53 L 117.51,35.38 L 117.55,36.38 L 117.34,35.73 L 117.10,35.55 L 116.54,35.32 L 116.12,35.28 L 115.21,35.43 L 114.68,35.76 L 114.44,36.05 L 113.98,36.73 L 113.76,37.21 L 113.34,38.25 L 113.44,37.84 L 113.82,36.56 L 114.26,34.38 L 114.33,33.90 L 114.38,33.19 L 114.26,32.59 L 114.10,32.43 L 114.30,32.17 L 115.22,32.00 L 115.75,32.00 M 62.72,131.60 L 62.12,132.85 L 62.72,131.60 M 168.56,89.50 L 166.68,90.25 L 165.86,90.77 L 164.34,91.87 L 163.84,92.47 L 163.03,93.68 L 163.02,94.25 L 163.08,94.52 L 163.20,94.62 L 163.52,94.79 L 163.75,94.84 L 164.92,94.97 L 165.76,94.92 L 167.58,94.74 L 168.65,94.56 L 170.89,94.14 L 172.07,93.85 L 174.22,93.31 L 174.00,93.39 L 172.97,93.72 L 170.96,94.37 L 169.99,94.69 L 168.24,95.27 L 167.41,95.54 L 166.12,95.99 L 164.91,96.43 L 164.47,96.62 L 163.44,96.49 L 162.94,96.35 L 162.14,95.67 L 161.79,95.25 L 161.41,94.42 L 161.27,94.01 L 161.27,93.21 L 161.32,92.82 L 161.69,92.08 L 161.91,91.72 L 162.60,91.07 L 162.99,90.76 L 163.98,90.22 L 164.51,89.97 L 165.76,89.57 L 166.42,89.39 L 167.91,89.15 L 170.38,89.00 L 171.37,89.00 Z" fill="rgba(253,194,43,1)"/>
<path d="M 23.71,143.29 L 24.00,144.00 L 24.00,144.28 L 23.71,144.71 L 23.00,145.00 L 22.72,145.00 L 22.29,144.71 L 22.11,144.53 L 22.00,144.00 L 22.00,143.72 L 22.29,143.29 L 23.00,143.00 L 23.27,143.00 Z" fill="rgba(252,193,32,1)"/>
<path d="M 129.66,162.05 L 130.32,162.11 L 131.57,162.59 L 132.88,163.78 L 133.01,164.02 L 133.34,164.98 L 133.51,165.52 L 133.88,166.93 L 134.95,172.03 L 135.12,172.97 L 135.75,175.33 L 136.10,176.56 L 137.05,179.31 L 140.66,187.85 L 141.17,188.89 L 142.02,190.66 L 142.41,191.49 L 143.05,192.88 L 143.34,193.53 L 143.78,194.60 L 143.97,195.10 L 144.23,195.90 L 144.44,196.65 L 144.39,197.61 L 143.72,198.71 L 143.38,199.05 L 142.89,199.44 L 142.67,199.59 L 142.34,199.58 L 142.19,199.52 L 141.92,199.07 L 141.79,198.79 L 141.50,197.86 L 141.40,197.54 L 140.90,196.44 L 140.61,195.83 L 139.79,194.31 L 136.67,189.08 L 136.16,188.29 L 135.05,186.26 L 134.49,185.18 L 133.31,182.70 L 132.14,180.16 L 129.93,174.62 L 129.41,173.27 L 128.51,170.71 L 128.09,169.47 L 127.44,167.29 L 127.15,166.27 L 126.82,164.67 L 126.78,163.15 L 126.93,162.70 L 127.84,162.21 L 128.36,162.03 M 90.99,160.49 L 91.50,160.81 L 91.91,161.88 L 91.96,162.20 L 91.91,162.95 L 91.86,163.35 L 91.60,164.29 L 91.45,164.79 L 90.98,165.93 L 90.71,166.52 L 90.02,167.88 L 89.65,168.58 L 88.74,170.16 L 87.12,172.81 L 85.78,174.92 L 83.30,179.41 L 82.74,180.47 L 81.85,182.34 L 80.97,184.50 L 80.73,185.25 L 80.18,186.56 L 79.90,187.18 L 79.29,188.20 L 78.99,188.67 L 78.38,189.37 L 78.09,189.67 L 77.54,190.02 L 77.28,190.15 L 76.84,190.13 L 76.64,190.07 L 76.37,189.65 L 76.26,189.39 L 76.21,188.54 L 76.22,188.05 L 76.44,186.75 L 76.63,185.86 L 77.04,183.92 L 77.52,181.67 L 77.71,180.80 L 78.12,179.23 L 78.33,178.48 L 78.77,177.22 L 78.99,176.63 L 79.41,175.76 L 80.00,175.00 L 80.15,174.90 L 80.60,174.31 L 80.84,173.95 L 81.43,172.95 L 82.05,171.88 L 83.44,169.11 L 84.12,167.71 L 85.23,165.11 L 85.46,164.52 L 85.79,163.57 L 86.00,162.60 L 86.00,162.19 L 86.56,161.45 L 86.90,161.10 L 87.91,160.57 L 88.43,160.35 L 89.55,160.18 M 110.11,164.28 L 110.84,164.47 L 111.16,164.59 L 111.57,165.05 L 111.74,165.32 L 111.91,166.18 L 112.00,168.07 L 112.00,169.07 L 112.00,169.10 L 111.58,167.72 L 110.98,166.96 L 110.60,166.73 L 109.82,166.37 L 109.45,166.39 L 108.75,166.59 L 108.53,166.95 L 108.33,168.03 L 108.44,168.97 L 108.60,169.41 L 109.14,170.37 L 109.49,170.62 L 110.25,170.98 L 110.62,170.95 L 111.34,170.74 L 111.59,170.43 L 111.90,169.86 L 111.69,171.51 L 110.96,174.68 L 110.61,175.68 L 110.43,177.57 L 110.91,180.26 L 111.18,180.97 L 111.40,182.98 L 111.46,184.03 L 111.32,186.20 L 111.20,187.24 L 110.77,188.88 L 110.65,189.22 L 110.36,189.70 L 109.87,190.00 L 109.63,190.00 L 109.22,189.63 L 109.04,189.41 L 108.88,188.75 L 108.92,186.64 L 108.96,186.41 L 108.70,185.65 L 107.95,184.44 L 107.65,184.07 L 107.35,182.92 L 107.45,181.14 L 107.54,180.87 L 107.62,179.90 L 107.64,179.36 L 107.60,177.96 L 107.09,173.05 L 106.94,172.13 L 106.72,170.56 L 106.63,169.81 L 106.53,168.54 L 106.50,167.95 L 106.52,166.97 L 106.55,166.52 L 106.70,165.80 L 106.89,165.14 L 107.69,164.47 L 109.60,164.24 M 149.36,151.41 L 149.68,151.54 L 150.40,151.96 L 150.78,152.20 L 151.66,152.85 L 152.13,153.20 L 153.23,154.10 L 155.17,155.75 L 157.20,157.50 L 160.68,161.25 L 161.48,162.18 L 162.87,163.98 L 163.53,164.86 L 164.58,166.51 L 165.07,167.30 L 165.73,168.71 L 166.01,169.37 L 166.24,170.45 L 166.29,170.94 L 166.02,171.59 L 165.00,172.00 L 164.89,172.00 L 164.36,171.63 L 164.05,171.40 L 163.21,170.64 L 162.77,170.22 L 161.74,169.16 L 161.21,168.61 L 160.08,167.36 L 159.52,166.72 L 158.50,165.49 L 158.01,164.89 L 157.20,163.83 L 156.83,163.33 L 156.32,162.56 L 156.00,161.86 L 156.00,161.62 L 155.63,161.25 L 154.75,160.98 L 154.58,160.98 L 153.91,160.66 L 153.53,160.46 L 152.55,159.80 L 149.00,156.98 L 148.07,156.16 L 146.80,154.94 L 146.24,154.38 L 145.65,153.57 L 145.43,153.21 L 145.43,152.67 L 146.00,152.01 L 146.62,151.61 L 147.67,151.22 L 148.19,151.10 M 72.17,146.77 L 72.32,146.92 L 72.36,147.41 L 72.35,147.69 L 72.07,148.42 L 71.88,148.81 L 71.29,149.76 L 70.95,150.27 L 70.06,151.42 L 69.57,152.02 L 68.39,153.36 L 67.76,154.05 L 66.31,155.56 L 65.55,156.33 L 63.84,157.99 L 60.99,160.63 L 60.02,161.50 L 58.49,162.71 L 57.78,163.23 L 56.69,163.76 L 56.19,163.95 L 55.42,163.84 L 55.06,163.71 L 54.51,163.01 L 54.42,162.87 L 54.46,162.45 L 54.51,162.21 L 54.78,161.64 L 56.31,159.76 L 56.64,159.45 L 57.73,158.41 L 58.34,157.84 L 59.82,156.42 L 64.87,151.55 L 66.03,150.43 L 67.85,148.78 L 68.68,148.05 L 69.93,147.14 L 70.50,146.77 L 71.31,146.51 M 65.84,105.81 L 66.19,107.06 L 66.58,107.80 L 67.51,110.07 L 67.87,111.54 L 67.92,112.23 L 67.92,113.58 L 67.79,114.19 L 67.43,115.36 L 67.11,115.85 L 66.89,117.65 L 67.29,119.28 L 67.74,120.19 L 68.67,123.25 L 68.86,125.47 L 68.71,126.42 L 68.48,128.68 L 68.58,129.81 L 68.78,130.25 L 69.29,131.08 L 69.74,131.46 L 70.76,132.19 L 71.50,132.60 L 72.36,133.28 L 72.96,133.95 L 73.24,134.35 L 74.30,136.11 L 74.61,137.02 L 76.03,139.61 L 76.64,140.32 L 76.96,140.58 L 77.59,141.04 L 77.89,141.16 L 78.87,141.71 L 79.58,142.26 L 79.93,142.61 L 81.31,144.14 L 81.79,144.96 L 82.69,146.11 L 83.56,146.95 L 84.11,147.39 L 86.60,149.21 L 88.13,150.11 L 91.33,151.88 L 93.02,152.64 L 96.42,154.06 L 98.00,154.52 L 100.14,155.33 L 101.41,155.97 L 101.76,156.25 L 102.52,156.60 L 103.24,156.76 L 103.67,156.80 L 105.54,156.85 L 106.49,156.70 L 109.13,156.59 L 109.83,156.70 L 110.08,156.80 L 110.51,157.01 L 110.59,157.15 L 111.17,157.61 L 111.67,157.67 L 112.78,157.66 L 113.36,157.47 L 114.48,157.21 L 115.43,157.07 L 115.95,157.01 L 118.17,156.87 L 119.18,156.90 L 121.95,156.72 L 122.66,156.56 L 122.92,156.46 L 123.36,156.23 L 123.43,156.11 L 123.97,155.69 L 124.59,155.40 L 125.00,155.25 L 126.86,154.69 L 127.95,154.51 L 131.07,153.62 L 131.96,153.23 L 132.30,153.03 L 132.90,152.62 L 133.06,152.42 L 134.29,151.42 L 135.21,151.00 L 135.57,151.00 L 136.61,150.48 L 137.74,149.66 L 138.46,149.06 L 140.00,147.75 L 140.87,146.97 L 142.64,145.31 L 143.56,144.41 L 148.82,138.24 L 151.96,133.64 L 153.22,131.32 L 154.43,129.01 L 154.93,127.89 L 155.87,125.68 L 156.22,124.64 L 156.84,122.62 L 157.02,121.71 L 157.28,119.95 L 157.27,119.20 L 157.69,116.42 L 158.46,115.11 L 159.10,114.71 L 160.40,113.53 L 160.70,112.99 L 160.69,113.50 L 160.31,116.90 L 160.06,118.61 L 159.27,122.08 L 158.83,123.82 L 157.66,127.28 L 157.04,129.00 L 155.53,132.35 L 154.74,134.01 L 152.92,137.17 L 151.98,138.71 L 149.89,141.59 L 146.48,145.48 L 145.23,146.73 L 142.44,149.02 L 141.00,150.13 L 137.90,152.14 L 136.31,153.10 L 132.97,154.78 L 131.28,155.57 L 127.80,156.90 L 126.04,157.51 L 122.48,158.46 L 120.71,158.88 L 117.17,159.42 L 115.40,159.63 L 111.96,159.72 L 110.26,159.71 L 107.00,159.34 L 105.52,159.11 L 102.73,158.54 L 101.36,158.24 L 98.78,157.51 L 96.23,156.74 L 91.62,154.65 L 89.38,153.51 L 85.16,150.57 L 79.00,145.06 L 77.33,143.35 L 74.46,139.85 L 73.09,138.08 L 70.82,134.45 L 69.75,132.61 L 68.07,128.84 L 66.20,123.00 L 65.94,121.90 L 65.61,119.20 L 65.47,117.79 L 65.39,114.64 L 65.36,111.43 L 65.83,105.77 M 164.36,132.75 L 164.73,132.84 L 165.70,133.22 L 166.23,133.44 L 167.62,134.11 L 168.38,134.49 L 170.29,135.51 L 171.32,136.07 L 173.86,137.47 L 178.50,140.07 L 180.15,140.99 L 183.32,142.53 L 184.05,142.87 L 185.25,143.35 L 186.50,143.73 L 187.36,143.86 L 188.65,144.15 L 189.23,144.30 L 190.04,144.69 L 190.38,144.91 L 190.78,145.44 L 191.00,146.47 L 191.00,146.94 L 190.47,147.53 L 190.11,147.76 L 188.79,147.88 L 188.02,147.88 L 185.81,147.54 L 185.20,147.42 L 183.80,147.10 L 183.06,146.93 L 181.41,146.49 L 180.71,146.31 L 178.95,145.68 L 178.03,145.34 L 176.03,144.48 L 175.01,144.03 L 173.00,143.05 L 170.24,141.56 L 169.40,141.07 L 167.80,140.18 L 167.03,139.75 L 165.66,139.05 L 165.02,138.72 L 164.05,138.28 L 163.19,138.00 L 162.77,138.00 L 162.14,137.46 L 161.86,137.13 L 161.57,136.18 L 161.47,135.68 L 161.58,134.63 L 162.26,133.31 L 162.62,132.95 L 163.45,132.66 L 163.70,132.64 M 60.73,128.14 L 61.39,128.32 L 61.70,128.43 L 62.20,128.80 L 62.42,129.00 L 62.72,129.53 L 62.84,129.81 L 62.91,130.48 L 62.91,130.82 L 62.72,131.60 L 62.12,132.85 L 62.00,133.03 L 61.08,133.51 L 60.52,133.76 L 58.87,134.33 L 57.98,134.61 L 55.83,135.19 L 52.27,136.00 L 49.80,136.49 L 45.03,137.73 L 43.94,138.04 L 42.13,138.62 L 40.24,139.38 L 39.58,139.71 L 38.64,140.14 L 38.21,140.32 L 37.63,140.42 L 37.38,140.43 L 37.04,140.20 L 36.88,140.05 L 36.64,139.50 L 36.50,139.14 L 36.62,138.33 L 36.74,137.92 L 37.34,137.05 L 37.69,136.61 L 38.69,135.72 L 39.24,135.27 L 40.58,134.40 L 41.29,133.97 L 42.91,133.16 L 43.75,132.77 L 45.57,132.06 L 51.50,130.51 L 52.60,130.33 L 54.97,129.74 L 55.53,129.58 L 56.52,129.26 L 57.68,128.80 L 58.17,128.56 L 59.09,128.28 L 59.54,128.17 L 60.34,128.13 M 172.99,111.48 L 176.56,111.58 L 177.79,111.63 L 180.21,111.73 L 181.39,111.77 L 183.53,111.85 L 184.54,111.89 L 186.15,111.94 L 187.72,111.98 L 188.14,111.98 L 188.76,112.11 L 189.03,112.19 L 189.36,112.45 L 189.62,112.73 L 189.37,113.50 L 189.14,113.89 L 188.04,114.65 L 185.65,115.42 L 185.01,115.52 L 183.39,115.70 L 182.54,115.79 L 180.98,115.93 L 181.70,115.81 L 181.96,115.72 L 182.40,115.53 L 182.49,115.41 L 182.59,115.15 L 182.50,115.00 L 182.03,114.61 L 181.52,114.38 L 181.20,114.29 L 179.75,114.00 L 178.94,114.00 L 176.86,114.29 L 176.38,114.49 L 176.23,114.61 L 176.00,114.86 L 176.00,115.00 L 176.10,115.27 L 176.28,115.39 L 176.72,115.62 L 177.05,115.71 L 178.58,116.00 L 179.56,116.00 L 180.93,115.93 L 180.63,115.95 L 178.68,116.11 L 174.52,116.33 L 173.51,116.37 L 171.62,116.43 L 170.71,116.46 L 169.12,116.47 L 168.38,116.47 L 167.26,116.42 L 166.77,116.39 L 166.25,116.29 L 165.84,116.14 L 165.33,115.41 L 165.13,115.00 L 165.04,114.01 L 165.04,113.52 L 165.37,112.61 L 166.31,111.71 L 166.49,111.64 L 167.52,111.55 L 168.13,111.50 L 169.86,111.47 L 170.79,111.45 M 41.38,107.43 L 45.00,107.52 L 46.08,107.55 L 48.01,107.62 L 48.94,107.66 L 50.59,107.75 L 52.18,107.85 L 54.56,108.10 L 55.63,108.24 L 57.10,108.60 L 58.41,109.26 L 58.79,109.65 L 59.21,110.53 L 59.16,111.59 L 59.04,111.75 L 58.15,112.02 L 57.62,112.14 L 56.05,112.34 L 55.19,112.42 L 53.14,112.53 L 52.07,112.58 L 49.74,112.61 L 47.37,112.62 L 42.67,112.40 L 41.56,112.32 L 39.60,112.11 L 38.68,111.99 L 37.25,111.69 L 36.52,111.51 L 35.35,111.11 L 34.82,110.91 L 34.03,110.46 L 33.68,110.23 L 33.25,109.73 L 33.00,108.90 L 33.00,108.52 L 33.36,108.00 L 33.50,107.88 L 33.95,107.71 L 34.21,107.63 L 34.95,107.52 L 35.37,107.48 L 35.81,107.45 L 35.84,107.50 L 36.01,107.63 L 36.25,107.69 L 37.49,108.28 L 38.00,108.82 L 38.00,109.07 L 38.04,109.64 L 38.11,109.78 L 38.30,109.97 L 38.46,109.93 L 38.83,109.74 L 39.08,109.50 L 39.64,108.93 L 40.00,108.50 L 40.52,107.73 L 40.57,107.42 M 115.27,64.56 L 117.47,64.65 L 118.53,64.70 L 120.38,64.84 L 122.17,64.99 L 125.10,65.54 L 126.52,65.86 L 129.32,66.88 L 130.04,67.17 L 131.60,67.88 L 134.21,69.14 L 135.98,70.02 L 139.31,72.12 L 140.94,73.21 L 143.97,75.71 L 145.45,77.01 L 148.15,79.87 L 149.46,81.34 L 151.81,84.53 L 152.93,86.16 L 154.91,89.64 L 155.84,91.41 L 157.41,95.15 L 158.14,97.04 L 159.27,100.99 L 160.46,107.11 L 160.67,108.63 L 160.71,110.97 L 160.65,110.86 L 160.06,109.99 L 159.56,109.61 L 158.95,108.84 L 158.55,108.06 L 158.36,107.57 L 157.67,105.40 L 157.51,104.23 L 157.04,102.06 L 156.56,100.36 L 156.25,99.42 L 154.83,95.52 L 153.99,93.57 L 152.25,89.74 L 151.41,88.22 L 150.59,86.78 L 150.21,86.23 L 149.49,85.23 L 149.19,84.95 L 148.28,84.04 L 147.50,83.23 L 147.06,82.75 L 145.18,80.71 L 144.30,79.70 L 140.55,76.15 L 137.58,73.94 L 135.97,72.96 L 132.67,71.12 L 131.00,70.40 L 127.67,69.11 L 126.10,68.74 L 124.12,68.22 L 122.96,67.88 L 122.50,67.72 L 121.66,67.41 L 121.40,67.29 L 121.00,67.05 L 121.00,66.98 L 120.28,66.77 L 119.16,66.65 L 118.33,66.61 L 116.53,66.53 L 115.45,66.52 L 113.17,66.49 L 111.93,66.50 L 108.36,66.46 L 106.23,66.37 L 105.36,66.30 L 103.77,66.14 L 103.25,66.04 L 102.40,65.84 L 102.33,65.72 L 101.47,65.53 L 100.60,65.88 L 100.15,66.27 L 98.72,67.36 L 97.55,68.17 L 96.89,68.60 L 94.10,70.34 L 92.66,71.14 L 89.84,72.67 L 88.70,73.20 L 87.62,73.67 L 87.20,73.82 L 86.45,74.06 L 86.23,74.07 L 84.93,74.76 L 83.76,75.82 L 83.06,76.59 L 81.60,78.28 L 80.80,79.30 L 79.16,81.46 L 78.32,82.65 L 74.92,87.68 L 73.42,90.25 L 71.97,92.79 L 71.36,93.99 L 70.21,96.33 L 69.79,97.36 L 68.60,100.16 L 67.83,101.82 L 67.49,102.49 L 66.85,103.72 L 66.60,104.12 L 66.15,104.76 L 66.03,104.80 L 65.90,105.01 L 65.93,104.67 L 66.11,103.03 L 66.60,99.95 L 66.86,98.46 L 67.49,95.87 L 67.82,94.65 L 68.57,92.78 L 69.78,91.04 L 69.88,90.97 L 70.36,90.38 L 70.65,90.02 L 71.43,88.97 L 71.84,88.40 L 72.81,87.02 L 74.37,84.75 L 75.60,82.92 L 78.17,79.66 L 79.47,78.10 L 82.21,75.35 L 83.61,74.04 L 86.54,71.80 L 88.04,70.73 L 91.20,68.97 L 92.82,68.14 L 96.24,66.85 L 97.98,66.26 L 101.69,65.42 L 103.58,65.05 L 107.59,64.65 L 114.00,64.52 M 182.45,86.04 L 183.25,86.19 L 183.61,86.29 L 184.13,86.63 L 184.34,86.82 L 184.52,87.33 L 184.56,87.60 L 184.33,88.26 L 183.46,89.39 L 183.08,89.78 L 181.70,90.58 L 180.93,90.98 L 178.97,91.78 L 177.93,92.17 L 175.63,92.90 L 174.46,93.25 L 172.07,93.85 L 170.89,94.14 L 168.65,94.56 L 167.58,94.74 L 165.76,94.92 L 164.92,94.97 L 163.75,94.84 L 163.52,94.79 L 163.20,94.62 L 163.08,94.52 L 163.02,94.25 L 163.03,93.68 L 163.84,92.47 L 164.34,91.87 L 165.86,90.77 L 166.68,90.25 L 168.56,89.50 L 171.37,89.00 L 172.03,89.00 L 173.91,88.56 L 176.64,87.51 L 177.95,86.82 L 180.38,86.19 L 180.95,86.08 L 181.97,86.04 M 29.94,72.14 L 31.42,72.61 L 31.85,72.77 L 32.54,73.59 L 33.00,75.11 L 33.00,75.62 L 33.26,76.35 L 33.42,76.66 L 33.87,76.95 L 34.11,77.03 L 34.60,76.82 L 35.20,75.89 L 35.29,75.64 L 35.92,75.37 L 36.30,75.27 L 37.47,75.29 L 38.11,75.33 L 39.72,75.60 L 40.58,75.77 L 42.55,76.27 L 43.57,76.55 L 45.81,77.27 L 46.95,77.65 L 49.37,78.55 L 56.86,81.82 L 58.08,82.42 L 60.13,83.47 L 61.10,83.97 L 62.68,84.85 L 63.42,85.27 L 64.57,86.01 L 65.10,86.37 L 65.85,87.02 L 66.18,87.34 L 66.58,87.92 L 66.74,88.21 L 66.81,88.77 L 66.81,89.05 L 66.59,89.62 L 65.99,90.51 L 65.53,91.06 L 64.63,91.67 L 64.15,91.88 L 62.96,91.77 L 62.63,91.70 L 61.86,91.40 L 61.46,91.22 L 60.52,90.72 L 60.02,90.44 L 58.87,89.72 L 58.26,89.33 L 56.85,88.39 L 55.03,87.17 L 51.60,85.07 L 49.91,84.08 L 46.64,82.40 L 45.01,81.60 L 41.78,80.28 L 36.81,78.62 L 35.44,78.22 L 33.13,77.34 L 32.04,76.89 L 30.35,75.92 L 29.59,75.43 L 28.61,74.42 L 28.00,72.93 L 28.00,72.66 L 28.22,72.30 L 28.36,72.16 L 28.87,72.04 L 29.15,72.01 M 198.86,78.55 L 199.00,79.88 L 199.00,80.44 L 198.37,81.41 L 196.75,82.37 L 195.92,82.59 L 194.29,82.85 L 193.51,82.94 L 192.13,82.95 L 191.49,82.93 L 190.59,82.70 L 190.21,82.56 L 190.00,82.11 L 190.00,82.02 L 190.30,81.72 L 190.50,81.56 L 191.11,81.15 L 191.79,80.73 L 193.68,79.78 L 194.65,79.31 L 196.54,78.54 L 196.97,78.37 L 197.71,78.15 L 198.52,78.00 L 198.65,78.00 M 172.66,58.22 L 173.00,59.16 L 173.00,59.32 L 172.42,60.17 L 172.05,60.66 L 170.84,62.06 L 170.17,62.81 L 168.50,64.56 L 165.64,67.41 L 164.63,68.38 L 162.65,70.38 L 161.69,71.37 L 159.95,73.22 L 159.14,74.12 L 157.84,75.62 L 156.62,77.25 L 156.15,78.01 L 155.18,79.06 L 154.70,79.50 L 153.77,79.89 L 153.31,79.99 L 152.52,79.68 L 152.15,79.44 L 151.61,78.42 L 151.44,77.98 L 151.18,77.25 L 151.00,76.65 L 151.00,76.62 L 151.41,76.13 L 151.68,75.82 L 152.54,74.85 L 153.02,74.32 L 154.21,73.01 L 156.25,70.80 L 157.41,69.55 L 159.64,67.27 L 160.74,66.18 L 162.80,64.25 L 163.80,63.33 L 165.64,61.77 L 166.53,61.04 L 168.12,59.88 L 168.87,59.35 L 170.16,58.63 L 170.76,58.32 L 171.69,58.06 L 172.11,57.99 M 59.33,54.07 L 59.63,54.15 L 60.36,54.51 L 60.75,54.72 L 61.67,55.36 L 62.15,55.71 L 63.26,56.62 L 63.83,57.11 L 65.12,58.29 L 67.26,60.37 L 69.00,62.12 L 72.68,65.36 L 73.54,66.08 L 75.06,67.25 L 76.80,68.40 L 77.68,68.85 L 79.06,69.94 L 79.35,70.21 L 79.75,70.70 L 80.00,71.33 L 80.00,71.68 L 79.67,72.49 L 79.47,72.90 L 78.87,73.69 L 78.55,74.06 L 77.83,74.62 L 76.83,75.00 L 76.72,75.00 L 75.97,74.52 L 75.52,74.22 L 74.22,73.22 L 73.51,72.68 L 71.81,71.30 L 70.94,70.58 L 69.03,68.95 L 68.06,68.12 L 66.30,66.49 L 65.46,65.69 L 64.06,64.25 L 63.43,63.57 L 62.55,62.49 L 62.00,61.44 L 62.00,61.04 L 61.41,59.91 L 60.00,58.27 L 59.45,57.80 L 58.59,56.68 L 58.00,55.28 L 58.00,54.93 L 58.15,54.46 L 58.25,54.25 L 58.59,54.05 L 58.79,53.99 M 73.94,70.00 L 73.28,70.29 L 73.00,70.72 L 73.00,71.00 L 73.18,71.52 L 73.46,71.71 L 74.13,72.00 L 74.56,72.00 L 75.48,71.71 L 75.67,71.27 L 75.50,71.00 L 74.79,70.29 L 74.20,70.00 M 151.94,25.63 L 152.08,25.96 L 151.85,27.00 L 150.66,28.92 L 150.47,29.14 L 150.01,30.18 L 149.77,30.78 L 149.25,32.44 L 148.99,33.32 L 148.47,35.37 L 147.75,38.67 L 147.58,39.58 L 146.96,41.89 L 146.61,43.10 L 145.71,45.84 L 144.76,48.64 L 142.44,54.52 L 141.86,55.93 L 140.71,58.53 L 140.15,59.77 L 139.13,61.85 L 138.63,62.80 L 137.82,64.12 L 137.63,64.39 L 137.32,64.74 L 136.94,64.97 L 136.79,64.98 L 136.03,64.62 L 135.61,64.39 L 134.63,63.72 L 134.08,63.32 L 133.56,62.34 L 133.49,62.06 L 133.51,61.37 L 133.56,61.01 L 133.83,60.10 L 134.00,59.61 L 134.54,58.42 L 134.85,57.79 L 135.68,56.25 L 136.14,55.44 L 137.29,53.49 L 139.39,50.05 L 140.03,49.01 L 141.19,46.92 L 141.75,45.88 L 142.66,43.96 L 143.07,43.04 L 143.64,41.49 L 144.00,39.83 L 144.00,39.42 L 144.16,38.32 L 144.27,37.74 L 144.60,36.39 L 144.97,35.00 L 146.05,31.96 L 146.61,30.47 L 147.80,27.95 L 148.09,27.40 L 148.63,26.54 L 149.33,25.77 L 150.03,25.33 L 151.06,25.12 L 151.50,25.11 M 66.41,61.12 L 66.25,61.34 L 66.00,61.93 L 66.00,62.43 L 66.66,63.57 L 67.63,64.18 L 68.25,64.29 L 69.48,64.54 L 69.96,64.64 L 70.79,64.83 L 70.90,64.86 L 70.92,64.76 L 70.79,64.54 L 70.66,64.37 L 70.00,63.55 L 69.50,63.00 L 68.06,61.64 L 67.26,61.13 L 66.95,61.08 M 81.38,24.44 L 81.71,24.68 L 82.42,25.77 L 83.49,28.29 L 83.84,29.31 L 85.12,31.87 L 87.23,35.25 L 88.09,36.38 L 89.60,38.68 L 90.33,39.86 L 91.67,42.43 L 92.33,43.77 L 93.61,46.84 L 95.58,52.23 L 95.90,53.18 L 96.41,54.83 L 96.65,55.62 L 96.98,56.96 L 97.12,57.60 L 97.27,58.66 L 97.32,59.16 L 97.28,59.96 L 97.24,60.34 L 97.02,60.91 L 96.88,61.17 L 96.46,61.54 L 94.47,62.00 L 94.04,62.00 L 93.32,61.84 L 92.99,61.72 L 92.44,61.29 L 92.18,61.04 L 91.74,60.29 L 91.53,59.87 L 91.15,58.75 L 90.87,57.86 L 90.25,55.43 L 89.49,52.00 L 89.26,50.75 L 88.38,47.64 L 87.90,46.04 L 86.74,42.78 L 86.14,41.20 L 84.96,38.53 L 84.68,37.93 L 84.15,36.97 L 83.46,35.96 L 82.91,35.35 L 81.84,33.54 L 81.32,32.59 L 80.47,30.48 L 80.09,29.43 L 79.64,27.54 L 79.56,27.10 L 79.51,26.36 L 79.63,25.51 L 79.87,24.91 L 80.43,24.34 L 80.72,24.16 M 116.54,35.32 L 117.10,35.55 L 117.34,35.73 L 117.58,36.46 L 117.66,36.92 L 117.64,38.46 L 117.62,38.90 L 117.54,40.00 L 117.37,41.97 L 117.19,43.87 L 117.27,48.32 L 117.33,49.42 L 117.53,51.53 L 117.97,54.37 L 118.13,55.14 L 118.36,56.49 L 118.46,57.14 L 118.57,58.23 L 118.61,58.74 L 118.59,59.58 L 118.56,59.97 L 118.41,60.56 L 118.32,60.82 L 118.05,61.17 L 117.89,61.31 L 117.48,61.42 L 117.04,61.47 L 115.75,60.89 L 115.45,60.72 L 114.97,60.22 L 114.75,59.93 L 114.43,59.19 L 114.28,58.79 L 114.11,57.80 L 114.00,56.01 L 114.00,54.94 L 113.71,53.08 L 113.62,52.67 L 113.39,52.05 L 113.00,51.50 L 112.83,51.40 L 112.56,50.91 L 112.44,50.63 L 112.26,49.85 L 112.10,49.00 L 112.04,46.67 L 112.05,45.44 L 112.33,42.76 L 113.14,38.94 L 113.34,38.26 L 113.76,37.21 L 113.98,36.73 L 114.44,36.05 L 114.68,35.76 L 115.21,35.43 L 116.12,35.28 M 93.40,52.80 L 92.14,54.11 L 91.65,55.17 L 91.59,55.72 L 91.59,56.81 L 91.78,57.31 L 92.28,58.25 L 92.73,58.60 L 93.69,59.31 L 94.02,59.53 L 94.58,59.87 L 94.72,59.90 L 94.91,59.88 L 94.87,59.73 L 94.71,59.35 L 94.51,59.02 L 94.37,57.79 L 94.62,56.72 L 94.88,56.22 L 95.34,54.66 L 95.31,53.70 L 95.15,53.34 L 94.75,52.71 L 94.45,52.60 L 93.79,52.54 M 112.70,45.27 L 112.26,46.21 L 112.17,46.86 L 112.09,47.61 L 112.10,47.89 L 112.15,48.38 L 112.24,48.54 L 112.44,48.80 L 112.59,48.83 L 112.94,48.85 L 113.17,48.78 L 114.08,47.98 L 114.43,47.16 L 114.47,46.71 L 114.45,45.82 L 114.29,45.46 L 113.87,44.84 L 113.50,44.75 Z" fill="rgba(253,195,48,1)"/>
<path d="M 108.60,169.41 L 108.44,168.97 L 108.33,168.03 L 108.53,166.95 L 108.75,166.59 L 109.45,166.39 L 109.82,166.37 L 110.60,166.73 L 110.98,166.96 L 111.58,167.72 L 112.00,169.11 L 112.00,169.68 L 111.59,170.43 L 111.34,170.74 L 110.62,170.95 L 110.25,170.98 L 109.49,170.62 L 109.14,170.37 M 110.59,157.15 L 110.51,157.01 L 110.08,156.80 L 109.83,156.70 L 109.13,156.59 L 106.49,156.70 L 105.54,156.85 L 103.67,156.80 L 103.24,156.76 L 102.52,156.60 L 101.76,156.25 L 101.41,155.97 L 100.14,155.33 L 98.00,154.52 L 96.42,154.06 L 93.02,152.64 L 91.33,151.88 L 88.13,150.11 L 86.60,149.21 L 84.11,147.39 L 83.56,146.95 L 82.69,146.11 L 81.79,144.96 L 81.31,144.14 L 79.93,142.61 L 79.58,142.26 L 78.87,141.71 L 77.89,141.16 L 77.59,141.04 L 76.96,140.58 L 76.64,140.32 L 76.03,139.61 L 74.61,137.02 L 74.30,136.11 L 73.24,134.35 L 72.96,133.95 L 72.36,133.28 L 71.50,132.60 L 70.76,132.19 L 69.74,131.46 L 69.29,131.08 L 68.78,130.25 L 68.58,129.81 L 68.48,128.68 L 68.71,126.42 L 68.86,125.47 L 68.67,123.25 L 67.74,120.19 L 67.29,119.28 L 66.89,117.65 L 67.11,115.85 L 67.43,115.36 L 67.79,114.19 L 67.92,113.58 L 67.92,112.23 L 67.87,111.54 L 67.51,110.07 L 66.58,107.80 L 66.19,107.06 L 65.84,105.81 L 65.79,105.54 L 65.81,105.14 L 66.03,104.80 L 66.15,104.76 L 66.60,104.12 L 66.85,103.72 L 67.49,102.49 L 67.83,101.82 L 68.60,100.16 L 69.79,97.36 L 70.21,96.33 L 71.36,93.99 L 71.97,92.79 L 73.42,90.25 L 74.92,87.68 L 78.32,82.65 L 79.16,81.46 L 80.80,79.30 L 81.60,78.28 L 83.06,76.59 L 83.76,75.82 L 84.93,74.76 L 86.23,74.07 L 86.45,74.06 L 87.20,73.82 L 87.62,73.67 L 88.70,73.20 L 89.84,72.67 L 92.66,71.14 L 94.10,70.34 L 96.89,68.60 L 97.55,68.17 L 98.72,67.36 L 100.15,66.27 L 100.60,65.88 L 101.47,65.53 L 102.33,65.72 L 102.40,65.84 L 103.25,66.04 L 103.77,66.14 L 105.36,66.30 L 106.23,66.37 L 108.36,66.46 L 111.93,66.50 L 113.17,66.49 L 115.45,66.52 L 116.53,66.53 L 118.33,66.61 L 119.16,66.65 L 120.28,66.77 L 121.00,66.98 L 121.00,67.05 L 121.40,67.29 L 121.66,67.41 L 122.50,67.72 L 122.96,67.88 L 124.12,68.22 L 126.10,68.74 L 127.67,69.11 L 131.00,70.40 L 132.67,71.12 L 135.97,72.96 L 137.58,73.94 L 140.55,76.15 L 144.30,79.70 L 145.18,80.71 L 147.06,82.75 L 147.50,83.23 L 148.28,84.04 L 149.19,84.95 L 149.49,85.23 L 150.21,86.23 L 150.59,86.78 L 151.41,88.22 L 152.25,89.74 L 153.99,93.57 L 154.83,95.52 L 156.25,99.42 L 156.56,100.36 L 157.04,102.06 L 157.51,104.23 L 157.67,105.40 L 158.36,107.57 L 158.55,108.06 L 158.95,108.84 L 159.56,109.61 L 160.06,109.99 L 160.65,110.86 L 160.87,111.30 L 160.92,112.21 L 160.88,112.66 L 160.40,113.53 L 159.10,114.71 L 158.46,115.11 L 157.69,116.42 L 157.27,119.20 L 157.28,119.95 L 157.02,121.71 L 156.84,122.62 L 156.22,124.64 L 155.87,125.68 L 154.93,127.89 L 154.43,129.01 L 153.22,131.32 L 151.96,133.64 L 148.82,138.24 L 143.56,144.41 L 142.64,145.31 L 140.87,146.97 L 140.00,147.75 L 138.46,149.06 L 137.74,149.66 L 136.61,150.48 L 135.57,151.00 L 135.21,151.00 L 134.29,151.42 L 133.06,152.42 L 132.90,152.62 L 132.30,153.03 L 131.96,153.23 L 131.07,153.62 L 127.95,154.51 L 126.86,154.69 L 125.00,155.25 L 124.59,155.40 L 123.97,155.69 L 123.43,156.11 L 123.36,156.23 L 122.92,156.46 L 122.66,156.56 L 121.95,156.72 L 119.18,156.90 L 118.17,156.87 L 115.95,157.01 L 115.43,157.07 L 114.48,157.21 L 113.36,157.47 L 112.78,157.66 L 111.67,157.67 L 111.17,157.61 M 176.00,115.00 L 176.00,114.86 L 176.23,114.61 L 176.38,114.49 L 176.86,114.29 L 178.94,114.00 L 179.75,114.00 L 181.20,114.29 L 181.52,114.38 L 182.03,114.61 L 182.50,115.00 L 182.59,115.15 L 182.49,115.41 L 182.40,115.53 L 181.96,115.72 L 181.70,115.81 L 180.96,115.93 L 179.56,116.00 L 178.58,116.00 L 177.05,115.71 L 176.72,115.62 L 176.28,115.39 L 176.10,115.27 M 38.00,109.07 L 38.00,108.82 L 37.49,108.28 L 36.25,107.69 L 36.01,107.63 L 35.84,107.50 L 35.80,107.44 L 36.00,107.33 L 36.15,107.28 L 36.70,107.20 L 37.87,107.12 L 38.59,107.09 L 39.57,107.11 L 39.99,107.13 L 40.42,107.29 L 40.57,107.39 L 40.52,107.73 L 40.00,108.50 L 39.64,108.93 L 39.08,109.50 L 38.83,109.74 L 38.46,109.93 L 38.30,109.97 L 38.11,109.78 L 38.04,109.64 M 73.00,71.00 L 73.00,70.72 L 73.28,70.29 L 73.94,70.00 L 74.20,70.00 L 74.79,70.29 L 75.50,71.00 L 75.67,71.27 L 75.48,71.71 L 74.56,72.00 L 74.13,72.00 L 73.46,71.71 L 73.18,71.52 M 68.25,64.29 L 67.63,64.18 L 66.66,63.57 L 66.00,62.43 L 66.00,61.93 L 66.25,61.34 L 66.41,61.12 L 66.95,61.08 L 67.26,61.13 L 68.06,61.64 L 69.50,63.00 L 70.00,63.55 L 70.66,64.37 L 70.79,64.54 L 70.92,64.76 L 70.90,64.86 L 70.79,64.83 L 69.96,64.64 L 69.48,64.54 M 92.73,58.60 L 92.28,58.25 L 91.78,57.31 L 91.59,56.81 L 91.59,55.72 L 91.65,55.17 L 92.14,54.11 L 93.40,52.80 L 93.79,52.54 L 94.45,52.60 L 94.75,52.71 L 95.15,53.34 L 95.31,53.70 L 95.34,54.66 L 94.88,56.22 L 94.62,56.72 L 94.37,57.79 L 94.51,59.02 L 94.71,59.35 L 94.87,59.73 L 94.91,59.88 L 94.72,59.90 L 94.58,59.87 L 94.02,59.53 L 93.69,59.31 M 112.17,46.86 L 112.26,46.21 L 112.70,45.27 L 113.50,44.75 L 113.87,44.84 L 114.29,45.46 L 114.45,45.82 L 114.47,46.71 L 114.43,47.16 L 114.08,47.98 L 113.17,48.78 L 112.94,48.85 L 112.59,48.83 L 112.44,48.80 L 112.24,48.54 L 112.15,48.38 L 112.10,47.89 L 112.09,47.61 Z" fill="rgba(254,196,53,1)"/>
</g>
</svg>